<?xml version="1.0" encoding="UTF-8" standalone="no"?>
<!-- Created with Inkscape (http://www.inkscape.org/) -->

<svg
   width="16.933332mm"
   height="16.933332mm"
   viewBox="0 0 16.933332 16.933332"
   version="1.1"
   id="svg1"
   inkscape:version="1.3.2 (091e20e, 2023-11-25, custom)"
   sodipodi:docname="go.svg"
   xmlns:inkscape="http://www.inkscape.org/namespaces/inkscape"
   xmlns:sodipodi="http://sodipodi.sourceforge.net/DTD/sodipodi-0.dtd"
   xmlns="http://www.w3.org/2000/svg"
   xmlns:svg="http://www.w3.org/2000/svg">
  <sodipodi:namedview
     id="namedview1"
     pagecolor="#ffffff"
     bordercolor="#000000"
     borderopacity="0.25"
     inkscape:showpageshadow="2"
     inkscape:pageopacity="0.0"
     inkscape:pagecheckerboard="0"
     inkscape:deskcolor="#d1d1d1"
     inkscape:document-units="mm"
     inkscape:zoom="1.4142136"
     inkscape:cx="16.263456"
     inkscape:cy="99.702056"
     inkscape:window-width="1920"
     inkscape:window-height="1010"
     inkscape:window-x="-6"
     inkscape:window-y="-6"
     inkscape:window-maximized="1"
     inkscape:current-layer="svg1"
     showgrid="false">
    <inkscape:page
       x="0"
       y="0"
       width="16.933332"
       height="16.933332"
       id="page2"
       margin="0"
       bleed="0"
       inkscape:export-filename="go-boards.svg"
       inkscape:export-xdpi="11.744842"
       inkscape:export-ydpi="11.744842" />
    <inkscape:page
       x="20.174479"
       y="0"
       width="19.049999"
       height="19.049999"
       id="page3"
       margin="0"
       bleed="0" />
    <inkscape:grid
       id="grid14"
       units="px"
       originx="0"
       originy="0"
       spacingx="0.26458333"
       spacingy="0.26458333"
       empcolor="#0099e5"
       empopacity="0.30196078"
       color="#0099e5"
       opacity="0.14901961"
       empspacing="5"
       dotted="false"
       gridanglex="30"
       gridanglez="30"
       visible="false" />
    <inkscape:page
       x="72.120293"
       y="-0.21180353"
       width="40.111111"
       height="40.111111"
       id="page14"
       margin="0"
       bleed="0" />
    <inkscape:page
       x="42.012924"
       y="0.074539065"
       width="27.516665"
       height="27.516668"
       id="page17"
       margin="0"
       bleed="0" />
  </sodipodi:namedview>
  <defs
     id="defs1">
    <radialGradient
       id="radialGradient3716"
       cx="-120"
       gradientUnits="userSpaceOnUse"
       cy="120.34"
       r="30"
       inkscape:collect="always"
       gradientTransform="matrix(0.21337323,0,0,0.21337323,33.659631,-0.75535689)">
      <stop
         id="stop3617"
         style="stop-color:#000000"
         offset="0" />
      <stop
         id="stop3619"
         style="stop-color:#323232"
         offset="1" />
    </radialGradient>
    <radialGradient
       id="radialGradient3735"
       cx="-120"
       gradientUnits="userSpaceOnUse"
       cy="120.34"
       r="30"
       inkscape:collect="always"
       gradientTransform="matrix(0.21337323,0,0,0.21337323,33.873004,12.687185)">
      <stop
         id="stop3617-4-8"
         style="stop-color:#ffffff"
         offset="0" />
      <stop
         id="stop3619-0-2"
         style="stop-color:#cdcdcd"
         offset="1" />
    </radialGradient>
  </defs>
  <g
     id="Icon">
    <circle
       style="fill:#404040;fill-opacity:1;stroke:none;stroke-width:0.264583;stroke-linecap:round;stroke-linejoin:round;stroke-miterlimit:10;stroke-dasharray:none;stroke-dashoffset:6;stroke-opacity:1;paint-order:normal"
       id="path12-9-3"
       cx="8.4666662"
       cy="8.4666662"
       r="8.4666662" />
    <path
       id="path12"
       style="fill:#262626;fill-opacity:1;stroke:none;stroke-width:0.264583;stroke-linecap:round;stroke-linejoin:round;stroke-miterlimit:10;stroke-dasharray:none;stroke-dashoffset:6;stroke-opacity:1;paint-order:normal"
       d="m 13.929634,2.0008509 c 2.970452,3.3552668 2.47296,8.0643361 -0.700468,11.2283151 -3.153224,3.112208 -7.9064042,3.594637 -11.2456738,0.682947 0.1275825,0.159875 0.3338052,0.36737 0.4726284,0.517588 3.2932935,3.319533 8.6540484,3.340804 11.9735814,0.04751 3.319532,-3.293293 3.340803,-8.6540471 0.04751,-11.9735794 C 14.302134,2.3281001 14.119431,2.1603432 13.92963,2.0008459 Z"
       sodipodi:nodetypes="scccsccs" />
  </g>
  <g
     id="9x9">
    <rect
       width="19.050001"
       height="19.050001"
       fill="#dcb35c"
       id="rect1"
       x="20.174479"
       y="0"
       style="fill:#ffffff;fill-opacity:1;stroke-width:2.64583" />
    <rect
       width="16.608803"
       height="16.608809"
       x="21.420143"
       y="1.2456603"
       stroke="#000000"
       stroke-width="0.529164"
       fill="none"
       id="rect2"
       style="stroke:#000000;stroke-width:0.079375;stroke-dasharray:none;stroke-opacity:1" />
    <path
       stroke="#000000"
       stroke-width="0.529164"
       fill="none"
       d="m 21.420142,3.321761 h 16.608805 m 0,2.0761017 H 21.420142 m 0,2.0761018 h 16.608805 m 0,2.0761005 H 21.420142 m 0,2.076102 h 16.608805 m 0,2.076101 H 21.420142 m 0,2.076101 h 16.608805 m 0,2.076102 H 21.420142"
       id="path2"
       style="stroke:#000000;stroke-width:0.079375;stroke-dasharray:none;stroke-opacity:1" />
    <path
       stroke="#000000"
       stroke-width="0.529164"
       fill="none"
       d="M 23.496242,1.2456605 V 17.854471 m 2.076101,0 V 1.2456605 m 2.0761,0 V 17.854471 m 2.076102,0 V 1.2456605 m 2.076099,0 V 17.854471 m 2.076102,0 V 1.2456605 m 2.076099,0 V 17.854471 m 2.076102,0 V 1.2456605"
       id="path3"
       style="stroke:#000000;stroke-width:0.079375;stroke-dasharray:none;stroke-opacity:1"
       sodipodi:nodetypes="cccccccccccccccc" />
    <path
       stroke="#000000"
       stroke-width="2.11667"
       stroke-linecap="round"
       d="m 25.572343,13.702268 v 0 m 8.304403,0 v 0 m 0,-8.3044053 v 0 m -8.304403,0 v 0 m 4.152202,4.1522023 v 0"
       id="path4"
       style="stroke:#000000;stroke-width:0.3175;stroke-dasharray:none;stroke-opacity:1" />
  </g>
  <g
     id="13x13"
     transform="matrix(0.68421052,0,0,0.68421052,13.229051,30.399922)"
     style="stroke-width:1.46154">
    <rect
       width="40.216667"
       height="40.216667"
       fill="#dcb35c"
       id="rect1-4"
       x="42.068737"
       y="-44.321712"
       style="fill:#ffffff;fill-opacity:1;stroke-width:3.867" />
    <rect
       width="36.560608"
       height="36.560608"
       x="43.89677"
       y="-42.493683"
       stroke="#000000"
       stroke-width="0.529167"
       fill="none"
       id="rect2-5"
       style="display:inline;stroke:#000000;stroke-width:0.11601;stroke-dasharray:none;stroke-opacity:1" />
    <path
       stroke="#000000"
       stroke-width="0.529167"
       fill="none"
       d="m 43.896768,-39.446966 h 36.560605 m 0,3.046717 H 43.896768 m 0,3.046718 h 36.560605 m 0,3.046717 H 43.896768 m 0,3.046717 h 36.560605 m 0,3.046717 H 43.896768 m 0,3.046717 h 36.560605 m 0,3.046717 H 43.896768 m 0,3.046717 h 36.560605 m 0,3.046717 H 43.896768 m 0,3.0467179 h 36.560605 m 0,3.046716 H 43.896768"
       id="path2-5"
       style="stroke:#000000;stroke-width:0.11601;stroke-dasharray:none;stroke-opacity:1" />
    <path
       stroke="#000000"
       stroke-width="0.529167"
       fill="none"
       d="m 46.943485,-42.493683 v 36.5606049 m 3.046718,0 V -42.493683 m 3.046716,0 v 36.5606049 m 3.046714,0 V -42.493683 m 3.04672,0 v 36.5606049 m 3.04672,0 V -42.493683 m 3.04671,0 v 36.5606049 m 3.04672,0 V -42.493683 m 3.04672,0 v 36.5606049 m 3.04672,0 V -42.493683 m 3.04671,0 v 36.5606049 m 3.04672,0 V -42.493683"
       id="path3-6"
       style="stroke:#000000;stroke-width:0.11601;stroke-dasharray:none;stroke-opacity:1" />
    <path
       stroke="#000000"
       stroke-width="2.11667"
       stroke-linecap="round"
       d="m 53.036919,-15.073229 v 0 m 18.280304,0 v 0 m 0,-18.280302 v 0 m -18.280304,0 v 0 m 9.140154,9.140151 v 0"
       id="path4-9"
       style="stroke:#000000;stroke-width:0.464038;stroke-dasharray:none;stroke-opacity:1" />
  </g>
  <g
     id="19x19"
     transform="translate(29.786969,-0.21180642)">
    <rect
       width="40.216667"
       height="40.216667"
       fill="#dcb35c"
       id="rect1-7"
       x="42.333321"
       y="2.8455238e-06"
       style="fill:#ffffff;fill-opacity:1;stroke-width:2.64583" />
    <rect
       width="37.703129"
       height="37.703129"
       x="43.590092"
       y="1.2567832"
       stroke="#000000"
       stroke-width="0.529168"
       fill="none"
       id="rect2-6"
       style="stroke-width:0.079375;stroke-dasharray:none" />
    <path
       stroke="#000000"
       stroke-width="0.529168"
       fill="none"
       d="m 43.590099,3.3513895 h 37.703129 m 0,2.0946106 H 43.590099 m 0,2.0946232 h 37.703129 m 0,2.0946233 H 43.590099 m 0,2.0946104 h 37.703129 m 0,2.094623 H 43.590099 m 0,2.094611 h 37.703129 m 0,2.094622 H 43.590099 m 0,2.094624 h 37.703129 m 0,2.09461 H 43.590099 m 0,2.094624 h 37.703129 m 0,2.09461 H 43.590099 m 0,2.094623 h 37.703129 m 0,2.094624 H 43.590099 m 0,2.094611 h 37.703129 m 0,2.094622 H 43.590099 m 0,2.094611 h 37.703129"
       id="path2-7"
       style="stroke-width:0.079375;stroke-dasharray:none" />
    <path
       stroke="#000000"
       stroke-width="0.529168"
       fill="none"
       d="M 45.684722,1.2567662 V 38.959896 m 2.094611,0 V 1.2567662 m 2.094622,0 V 38.959896 m 2.094611,0 V 1.2567662 m 2.094624,0 V 38.959896 m 2.094622,0 V 1.2567662 m 2.094611,0 V 38.959896 m 2.094624,0 V 1.2567662 m 2.09461,0 V 38.959896 m 2.094623,0 V 1.2567662 m 2.094623,0 V 38.959896 m 2.094611,0 V 1.2567662 m 2.094624,0 V 38.959896 m 2.09461,0 V 1.2567662 m 2.094623,0 V 38.959896 m 2.094624,0 V 1.2567662 m 2.09461,0 V 38.959896"
       id="path3-3"
       style="stroke-width:0.079375;stroke-dasharray:none" />
    <path
       stroke="#000000"
       stroke-width="2.11668"
       stroke-linecap="round"
       d="m 49.873955,32.676039 v 0 m 12.567702,0 v 0 m 12.567714,0 v 0 m 0,-12.567702 v 0 m -12.567714,0 v 0 m -12.567702,0 v 0 m 0,-12.5677137 v 0 m 12.567702,0 v 0 m 12.567714,0 v 0"
       id="path4-2"
       style="stroke-width:0.3175;stroke-dasharray:none" />
  </g>
  <circle
     id="path2841-8"
     style="color:#000000;fill:url(#radialGradient3716);stroke-width:0.213373"
     cx="8.0548429"
     cy="24.922029"
     r="6.401197" />
  <circle
     id="path2841-9-4-7"
     style="color:#000000;fill:url(#radialGradient3735);stroke:#000000;stroke-width:0.426746"
     cx="8.2682161"
     cy="38.364571"
     r="6.401197" />
</svg>
